<svg width="50" height="50" viewBox="0 0 50 50" fill="none" xmlns="http://www.w3.org/2000/svg">
<path fill-rule="evenodd" clip-rule="evenodd" d="M13.2924 12.5038C12.8569 12.5038 12.5038 12.8472 12.5038 13.2708V13.849C12.5038 14.2727 12.8569 14.6161 13.2924 14.6161H15.1252C15.4247 14.6161 15.6983 14.781 15.8315 15.0418L16.8243 17.2451C16.8614 17.3177 16.8906 17.4008 16.9455 17.4561L21.2098 27.3482C21.1674 27.3679 21.1267 27.3919 21.0884 27.42C19.9069 28.29 19.1076 29.41 19.1076 30.5372C19.1075 31.1932 19.3891 31.8063 19.9535 32.2298C20.4894 32.6318 21.19 32.7975 21.9422 32.7975H21.9669C21.478 33.2964 21.1779 33.9719 21.1779 34.7156C21.1779 36.2513 22.4579 37.4963 24.0368 37.4963C25.6158 37.4963 26.8958 36.2513 26.8958 34.7156C26.8958 33.9719 26.5957 33.2964 26.1067 32.7975H29.8537C29.3648 33.2964 29.0646 33.9719 29.0646 34.7156C29.0646 36.2513 30.3447 37.4963 31.9236 37.4963C33.5026 37.4963 34.7826 36.2513 34.7826 34.7156C34.7826 33.9719 34.4824 33.2964 33.9936 32.7975H34.5854C35.021 32.7975 35.3741 32.454 35.3741 32.0304V31.6469C35.3741 31.2231 35.021 30.8797 34.5854 30.8797H21.9422C21.4618 30.8797 21.2381 30.7714 21.1577 30.7112C21.1058 30.6722 21.0792 30.6347 21.0793 30.5374C21.0793 30.2789 21.3195 29.6821 22.1826 29.0206C22.2205 28.9915 22.2559 28.9598 22.2885 28.9257C22.375 28.9497 22.4657 28.9624 22.5585 28.9624H34.539C35.0208 28.9624 35.4322 28.6235 35.5114 28.1611L37.4826 16.6548C37.5828 16.0703 37.1193 15.5383 36.5102 15.5383H18.6118C18.4617 15.5383 18.3253 15.4509 18.2625 15.3145L17.1655 12.9295C17.0323 12.6687 16.7587 12.5038 16.4592 12.5038H13.2924ZM19.6907 17.4561C19.4147 17.4561 19.2286 17.7383 19.3373 17.992L23.116 26.8116C23.1765 26.953 23.3155 27.0447 23.4693 27.0447H33.3795C33.5669 27.0447 33.7269 26.9097 33.7585 26.7251L35.2694 17.9055C35.3097 17.6706 35.1288 17.4561 34.8905 17.4561H19.6907ZM22.9523 34.7156C22.9523 34.133 23.4379 33.6608 24.0368 33.6608C24.6357 33.6608 25.1212 34.133 25.1212 34.7156C25.1212 35.2981 24.6357 35.7703 24.0368 35.7703C23.4379 35.7703 22.9523 35.2981 22.9523 34.7156ZM31.9236 33.6608C31.3247 33.6608 30.8392 34.133 30.8392 34.7156C30.8392 35.2981 31.3247 35.7703 31.9236 35.7703C32.5226 35.7703 33.0081 35.2981 33.0081 34.7156C33.0081 34.133 32.5226 33.6608 31.9236 33.6608Z" fill="black"/>
</svg>
